HIERARCHY
ROOT Hips
{
	OFFSET 0.000000 113.099899 0.000000
	CHANNELS 6 Xposition Yposition Zposition Xrotation Yrotation Zrotation 
	JOINT Spine
	{
		OFFSET 0.030900 11.006599 0.107900
		CHANNELS 3 Xrotation Yrotation Zrotation
		JOINT Spine1
		{
			OFFSET 0.026567 7.368167 0.073067
			CHANNELS 3 Xrotation Yrotation Zrotation
			JOINT Spine1_split
			{
				OFFSET 0.026567 7.368167 0.073067
				CHANNELS 3 Xrotation Yrotation Zrotation
				JOINT Spine2
				{
					OFFSET 0.026567 7.368167 0.073067
					CHANNELS 3 Xrotation Yrotation Zrotation
					JOINT RightShoulder
					{
						OFFSET -4.045750 12.882797 -4.277050
						CHANNELS 3 Xrotation Yrotation Zrotation
						JOINT RightShoulder_split
						{
							OFFSET -4.045750 12.882797 -4.277050
							CHANNELS 3 Xrotation Yrotation Zrotation
							JOINT RightArm
							{
								OFFSET -16.792519 -5.760162 -3.882900
								CHANNELS 3 Xrotation Yrotation Zrotation
								JOINT RightForeArm
								{
									OFFSET -26.244873 0.000000 0.000000
									CHANNELS 3 Xrotation Yrotation Zrotation
									JOINT RightHand
									{
										OFFSET -28.289303 0.000000 0.000000
										CHANNELS 3 Xrotation Yrotation Zrotation
										JOINT RightHandThumb1
										{
											OFFSET -6.383202 -2.630096 4.038943
											CHANNELS 3 Xrotation Yrotation Zrotation
											JOINT RightHandThumb2
											{
												OFFSET -3.383270 -1.953323 1.953330
												CHANNELS 3 Xrotation Yrotation Zrotation
												JOINT RightHandThumb3
												{
													OFFSET -2.576279 -1.487411 1.487417
													CHANNELS 3 Xrotation Yrotation Zrotation
													JOINT RightHandThumb4
													{
														OFFSET -4.251595 -2.454651 2.454658
														CHANNELS 3 Xrotation Yrotation Zrotation
														End Site
														{
															OFFSET 0.000000 0.000000 0.000000
														}
													}
												}
											}
										}
										JOINT RightHandIndex1
										{
											OFFSET -17.366905 0.679031 3.487696
											CHANNELS 3 Xrotation Yrotation Zrotation
											JOINT RightHandIndex2
											{
												OFFSET -5.282501 0.000000 0.000000
												CHANNELS 3 Xrotation Yrotation Zrotation
												JOINT RightHandIndex3
												{
													OFFSET -2.920502 0.000000 0.000000
													CHANNELS 3 Xrotation Yrotation Zrotation
													JOINT RightHandIndex4
													{
														OFFSET -5.201721 0.000000 0.000000
														CHANNELS 3 Xrotation Yrotation Zrotation
														End Site
														{
															OFFSET 0.000000 0.000000 0.000000
														}
													}
												}
											}
										}
										JOINT RightHandMiddle1
										{
											OFFSET -18.143105 0.000000 0.000000
											CHANNELS 3 Xrotation Yrotation Zrotation
											JOINT RightHandMiddle2
											{
												OFFSET -3.858299 0.000000 0.000000
												CHANNELS 3 Xrotation Yrotation Zrotation
												JOINT RightHandMiddle3
												{
													OFFSET -6.063004 0.000000 0.000000
													CHANNELS 3 Xrotation Yrotation Zrotation
													JOINT RightHandMiddle4
													{
														OFFSET -4.743500 0.000000 0.000000
														CHANNELS 3 Xrotation Yrotation Zrotation
														End Site
														{
															OFFSET 0.000000 0.000000 0.000000
														}
													}
												}
											}
										}
										JOINT RightHandRing1
										{
											OFFSET -17.519402 0.582230 -3.709609
											CHANNELS 3 Xrotation Yrotation Zrotation
											JOINT RightHandRing2
											{
												OFFSET -5.151604 0.000000 0.000000
												CHANNELS 3 Xrotation Yrotation Zrotation
												JOINT RightHandRing3
												{
													OFFSET -5.030304 0.000000 0.000000
													CHANNELS 3 Xrotation Yrotation Zrotation
													JOINT RightHandRing4
													{
														OFFSET -3.839882 0.000000 0.000000
														CHANNELS 3 Xrotation Yrotation Zrotation
														End Site
														{
															OFFSET 0.000000 0.000000 0.000000
														}
													}
												}
											}
										}
										JOINT RightHandPinky1
										{
											OFFSET -17.049004 0.455902 -7.393680
											CHANNELS 3 Xrotation Yrotation Zrotation
											JOINT RightHandPinky2
											{
												OFFSET -3.134300 0.000000 0.000000
												CHANNELS 3 Xrotation Yrotation Zrotation
												JOINT RightHandPinky3
												{
													OFFSET -3.263298 0.000000 0.000000
													CHANNELS 3 Xrotation Yrotation Zrotation
													JOINT RightHandPinky4
													{
														OFFSET -2.849182 0.000000 0.000000
														CHANNELS 3 Xrotation Yrotation Zrotation
														End Site
														{
															OFFSET 0.000000 0.000000 0.000000
														}
													}
												}
											}
										}
									}
								}
							}
						}
					}
					JOINT Neck
					{
						OFFSET 0.048500 28.791901 -0.575700
						CHANNELS 3 Xrotation Yrotation Zrotation
						JOINT Head
						{
							OFFSET -0.000300 9.309402 3.460100
							CHANNELS 3 Xrotation Yrotation Zrotation
							JOINT HeadTop_End
							{
								OFFSET 0.003100 15.087601 6.292800
								CHANNELS 3 Xrotation Yrotation Zrotation
								End Site
								{
									OFFSET 0.000000 0.000000 0.000000
								}
							}
						}
					}
					JOINT LeftShoulder
					{
						OFFSET 3.921200 12.882797 -4.277050
						CHANNELS 3 Xrotation Yrotation Zrotation
						JOINT LeftShoulder_split
						{
							OFFSET 3.921200 12.882797 -4.277050
							CHANNELS 3 Xrotation Yrotation Zrotation
							JOINT LeftArm
							{
								OFFSET 16.792519 -5.760162 -3.882900
								CHANNELS 3 Xrotation Yrotation Zrotation
								JOINT LeftForeArm
								{
									OFFSET 26.244873 0.000000 0.000000
									CHANNELS 3 Xrotation Yrotation Zrotation
									JOINT LeftHand
									{
										OFFSET 28.289303 0.000000 0.000000
										CHANNELS 3 Xrotation Yrotation Zrotation
										JOINT LeftHandThumb1
										{
											OFFSET 6.383202 -2.630096 4.038943
											CHANNELS 3 Xrotation Yrotation Zrotation
											JOINT LeftHandThumb2
											{
												OFFSET 3.383270 -1.953323 1.953330
												CHANNELS 3 Xrotation Yrotation Zrotation
												JOINT LeftHandThumb3
												{
													OFFSET 2.576279 -1.487411 1.487417
													CHANNELS 3 Xrotation Yrotation Zrotation
													JOINT LeftHandThumb4
													{
														OFFSET 4.251595 -2.454651 2.454658
														CHANNELS 3 Xrotation Yrotation Zrotation
														End Site
														{
															OFFSET 0.000000 0.000000 0.000000
														}
													}
												}
											}
										}
										JOINT LeftHandIndex1
										{
											OFFSET 17.366905 0.679031 3.487696
											CHANNELS 3 Xrotation Yrotation Zrotation
											JOINT LeftHandIndex2
											{
												OFFSET 5.282501 0.000000 0.000000
												CHANNELS 3 Xrotation Yrotation Zrotation
												JOINT LeftHandIndex3
												{
													OFFSET 2.920502 0.000000 0.000000
													CHANNELS 3 Xrotation Yrotation Zrotation
													JOINT LeftHandIndex4
													{
														OFFSET 5.201721 0.000000 0.000000
														CHANNELS 3 Xrotation Yrotation Zrotation
														End Site
														{
															OFFSET 0.000000 0.000000 0.000000
														}
													}
												}
											}
										}
										JOINT LeftHandMiddle1
										{
											OFFSET 18.143105 0.000000 0.000000
											CHANNELS 3 Xrotation Yrotation Zrotation
											JOINT LeftHandMiddle2
											{
												OFFSET 3.858299 0.000000 0.000000
												CHANNELS 3 Xrotation Yrotation Zrotation
												JOINT LeftHandMiddle3
												{
													OFFSET 6.063004 0.000000 0.000000
													CHANNELS 3 Xrotation Yrotation Zrotation
													JOINT LeftHandMiddle4
													{
														OFFSET 4.743500 0.000000 0.000000
														CHANNELS 3 Xrotation Yrotation Zrotation
														End Site
														{
															OFFSET 0.000000 0.000000 0.000000
														}
													}
												}
											}
										}
										JOINT LeftHandRing1
										{
											OFFSET 17.519402 0.582230 -3.709609
											CHANNELS 3 Xrotation Yrotation Zrotation
											JOINT LeftHandRing2
											{
												OFFSET 5.151604 0.000000 0.000000
												CHANNELS 3 Xrotation Yrotation Zrotation
												JOINT LeftHandRing3
												{
													OFFSET 5.030304 0.000000 0.000000
													CHANNELS 3 Xrotation Yrotation Zrotation
													JOINT LeftHandRing4
													{
														OFFSET 3.839882 0.000000 0.000000
														CHANNELS 3 Xrotation Yrotation Zrotation
														End Site
														{
															OFFSET 0.000000 0.000000 0.000000
														}
													}
												}
											}
										}
										JOINT LeftHandPinky1
										{
											OFFSET 17.049004 0.455902 -7.393680
											CHANNELS 3 Xrotation Yrotation Zrotation
											JOINT LeftHandPinky2
											{
												OFFSET 3.134300 0.000000 0.000000
												CHANNELS 3 Xrotation Yrotation Zrotation
												JOINT LeftHandPinky3
												{
													OFFSET 3.263298 0.000000 0.000000
													CHANNELS 3 Xrotation Yrotation Zrotation
													JOINT LeftHandPinky4
													{
														OFFSET 2.849182 0.000000 0.000000
														CHANNELS 3 Xrotation Yrotation Zrotation
														End Site
														{
															OFFSET 0.000000 0.000000 0.000000
														}
													}
												}
											}
										}
									}
								}
							}
						}
					}
				}
			}
		}
	}
	JOINT LeftUpLeg
	{
		OFFSET 12.782900 -8.515800 1.402900
		CHANNELS 3 Xrotation Yrotation Zrotation
		JOINT LeftLeg
		{
			OFFSET 0.286293 -45.696644 1.647000
			CHANNELS 3 Xrotation Yrotation Zrotation
			JOINT LeftFoot
			{
				OFFSET -0.286293 -49.013859 -4.511100
				CHANNELS 3 Xrotation Yrotation Zrotation
				JOINT LeftToeBase
				{
					OFFSET 3.214700 -9.860800 10.650700
					CHANNELS 3 Xrotation Yrotation Zrotation
					JOINT LeftToe_End
					{
						OFFSET 3.562400 -0.012800 12.320899
						CHANNELS 3 Xrotation Yrotation Zrotation
						End Site
						{
							OFFSET 0.000000 0.000000 0.000000
						}
					}
				}
			}
		}
	}
	JOINT RightUpLeg
	{
		OFFSET -12.810900 -8.515800 1.402900
		CHANNELS 3 Xrotation Yrotation Zrotation
		JOINT RightLeg
		{
			OFFSET -0.286355 -45.696659 1.646900
			CHANNELS 3 Xrotation Yrotation Zrotation
			JOINT RightFoot
			{
				OFFSET 0.286355 -49.013847 -4.510900
				CHANNELS 3 Xrotation Yrotation Zrotation
				JOINT RightToeBase
				{
					OFFSET -3.214701 -9.860800 10.650700
					CHANNELS 3 Xrotation Yrotation Zrotation
					JOINT RightToe_End
					{
						OFFSET -3.562401 -0.012800 12.320900
						CHANNELS 3 Xrotation Yrotation Zrotation
						End Site
						{
							OFFSET 0.000000 0.000000 0.000000
						}
					}
				}
			}
		}
	}
}
MOTION
Frames: 5
Frame Time: 0.016667
10.064346 128.823624 -18.298286 -71.492136 44.710429 48.192602 0.993368 3.021339 3.655048 1.784117 6.255543 7.350908 0.000000 0.000000 0.000000 1.784111 6.255544 7.350913 -0.252681 10.907833 24.569686 0.000000 0.000000 0.000000 24.473036 40.628762 14.030624 -0.033637 110.142319 0.031924 -18.762898 0.107419 -58.735467 -6.290446 0.817687 -10.818979 -0.647658 -5.164373 -4.966404 -0.000016 -0.000000 0.000007 -0.000000 -0.000001 -0.000001 0.097412 -0.894088 11.779930 0.124732 -1.116943 17.135200 0.000001 0.000001 -0.000006 -0.000001 -0.000004 -0.000000 -0.071918 -2.437689 12.492314 -0.087668 0.543772 12.189238 0.000001 0.000001 0.000000 0.000000 0.000003 0.000000 -0.186221 -8.188577 15.330599 -0.189339 0.083412 18.859223 -0.000009 -0.000000 -0.000006 0.000000 -0.000003 -0.000002 -0.219465 -14.048362 12.822872 -0.402095 2.038885 20.632518 -0.000003 -0.000006 0.000003 -0.000002 -0.000002 0.000000 0.957288 -17.801843 13.026378 32.531877 -45.515978 5.684749 0.000001 0.000001 -0.000002 0.419821 2.298251 -5.177008 0.000000 0.000000 0.000000 25.059044 1.953171 5.233396 -0.044119 -108.280116 -0.042232 -91.743654 -14.486958 11.517852 -6.286775 -0.818966 10.820987 -0.647353 5.164700 4.966088 0.000001 0.000002 -0.000007 0.000001 -0.000001 0.000000 -1.526344 1.130080 -10.693990 0.224688 1.696113 -18.154634 0.000009 -0.000000 0.000005 -0.000001 -0.000002 -0.000003 -0.783650 2.595018 -12.461064 -0.071254 -0.389979 -12.195030 -0.000000 -0.000001 0.000003 -0.000001 0.000001 -0.000001 1.736024 7.661858 -15.595653 -0.295283 -0.721784 -18.846088 0.000009 0.000001 -0.000002 0.000000 0.000001 -0.000000 3.971314 13.083793 -13.806339 -0.663680 -3.508126 -20.442517 -0.000001 -0.000003 -0.000003 0.000000 -0.000001 -0.000000 -110.820536 -24.466887 5.591982 117.706016 -1.277125 -2.334121 26.590708 10.379681 -21.462700 0.000002 -0.000022 0.000002 0.000001 -0.000000 -0.000000 -98.665832 -19.408099 21.245862 108.458814 1.892215 2.241663 25.075791 -15.161189 22.699259 0.000002 0.000002 -0.000004 -0.000000 0.000002 -0.000000 
10.160892 129.014328 -17.420990 -71.502853 44.717392 48.036519 1.113903 3.021448 3.691036 2.022964 6.269200 7.421013 0.000000 0.000000 0.000000 2.022938 6.269206 7.421022 -0.315718 10.751487 24.645845 0.000000 0.000000 0.000000 24.992531 41.118114 14.076555 -0.037166 110.151738 0.035237 -17.836370 0.166466 -58.989052 -6.297102 0.827944 -10.825523 -0.644551 -5.153678 -4.948793 -0.000015 -0.000004 0.000007 -0.000000 0.000002 -0.000000 0.098370 -0.898551 11.753642 0.128323 -1.128525 17.100113 0.000002 -0.000001 -0.000002 -0.000002 0.000001 -0.000002 -0.066275 -2.440003 12.465687 -0.087469 0.542471 12.167826 0.000003 0.000002 -0.000001 -0.000000 0.000003 0.000002 -0.187186 -8.182728 15.298691 -0.188536 0.081070 18.821614 -0.000007 0.000000 -0.000008 0.000001 0.000004 -0.000001 -0.213809 -14.028495 12.801011 -0.400664 2.034129 20.587561 -0.000006 -0.000005 0.000006 0.000000 -0.000000 0.000001 0.121870 -18.115967 12.694102 32.339426 -45.116982 5.583511 0.000001 0.000000 0.000001 0.435393 2.279417 -5.322365 0.000000 0.000000 0.000000 24.981588 2.811544 4.970761 -0.039228 -108.532573 -0.037532 -92.338195 -14.729211 11.001515 -6.286369 -0.819066 10.820040 -0.646694 5.151867 4.951582 -0.000004 0.000003 -0.000007 0.000001 -0.000001 0.000000 -1.539963 1.151094 -10.654650 0.224561 1.691987 -18.104391 0.000008 0.000002 0.000004 0.000000 0.000001 0.000001 -0.780280 2.608549 -12.420427 -0.070854 -0.387997 -12.157107 -0.000001 -0.000001 0.000006 -0.000001 -0.000002 0.000004 1.733832 7.657981 -15.548210 -0.293425 -0.716372 -18.789179 0.000008 -0.000001 -0.000003 0.000001 0.000001 0.000004 3.973965 13.063871 -13.769956 -0.659742 -3.497541 -20.380859 0.000000 -0.000004 0.000001 -0.000001 0.000001 0.000000 -110.605645 -25.128346 5.576703 117.840707 -1.243978 -2.329482 26.662258 9.919754 -21.972128 -0.193398 -0.003994 0.267534 0.000000 0.000000 0.000001 -98.232901 -19.753339 21.462377 108.340426 1.879688 2.242414 25.135615 -15.459372 23.029847 0.000917 -0.082521 0.059481 0.000001 -0.000001 -0.000001 
10.248051 129.210785 -16.508663 -71.563437 44.697243 47.896025 1.240535 3.007162 3.726917 2.274775 6.255828 7.491885 0.000000 0.000000 0.000000 2.274774 6.255810 7.491885 -0.369959 10.643246 24.638429 0.000000 0.000000 0.000000 25.460235 41.614775 14.241888 -0.044101 110.087138 0.041783 -16.888835 0.310900 -59.205767 -6.307811 0.844390 -10.836035 -0.639558 -5.136470 -4.920555 -0.000014 -0.000003 0.000006 -0.000000 0.000003 0.000001 0.099839 -0.905768 11.711604 0.133988 -1.147194 17.043697 -0.000002 -0.000002 -0.000001 0.000001 -0.000001 0.000001 -0.057214 -2.443746 12.423058 -0.087131 0.540352 12.133432 0.000000 0.000003 -0.000000 0.000001 -0.000001 0.000001 -0.188692 -8.173344 15.247388 -0.187257 0.077352 18.761208 -0.000009 -0.000001 -0.000004 -0.000000 0.000001 -0.000001 -0.204645 -13.996649 12.765828 -0.398390 2.026537 20.515349 -0.000006 -0.000010 -0.000000 0.000001 0.000002 -0.000003 -0.701692 -18.418396 12.284900 32.213300 -44.704216 5.582751 0.000002 0.000000 -0.000000 0.443908 2.282074 -5.427606 0.000000 0.000000 0.000000 24.979586 3.620566 4.635044 -0.034568 -108.747499 -0.033083 -92.753525 -14.953746 10.429817 -6.286795 -0.818980 10.820974 -0.646891 5.131454 4.930804 -0.000002 0.000004 -0.000007 -0.000001 0.000000 0.000000 -1.563519 1.184485 -10.603882 0.224701 1.686347 -18.036110 0.000007 0.000000 0.000005 0.000002 -0.000000 0.000003 -0.776039 2.629763 -12.367578 -0.070315 -0.385462 -12.108630 -0.000002 -0.000001 0.000005 -0.000001 -0.000001 -0.000001 1.730716 7.650335 -15.484469 -0.290879 -0.708882 -18.710164 0.000006 0.000003 0.000002 0.000001 -0.000001 0.000002 3.979836 13.029935 -13.724345 -0.654200 -3.482650 -20.294135 0.000001 -0.000000 -0.000004 -0.000001 -0.000001 -0.000002 -110.340388 -25.838145 5.530717 117.955373 -1.223622 -2.326162 26.789879 9.493304 -22.281561 -0.425684 -0.039506 0.562741 0.000001 -0.000000 0.000002 -97.720937 -20.117048 21.712511 108.176311 1.863448 2.243525 25.246080 -15.844244 23.429743 0.004486 -0.169612 0.122608 -0.000000 0.000001 -0.000001 
10.310417 129.424164 -15.507694 -71.751492 44.605544 47.801680 1.382361 2.955121 3.761819 2.559156 6.172151 7.564300 0.000000 0.000000 0.000000 2.559156 6.172138 7.564294 -0.400497 10.674095 24.421625 0.000000 0.000000 0.000000 25.792423 42.120923 14.734354 -0.059441 109.830897 0.056262 -15.873129 0.669541 -59.322898 -6.328878 0.876728 -10.856672 -0.629739 -5.102618 -4.865034 -0.000014 -0.000007 0.000007 -0.000001 -0.000001 -0.000001 0.102722 -0.919956 11.629268 0.145107 -1.183847 16.932908 0.000002 -0.000003 0.000000 -0.000001 0.000001 -0.000001 -0.039437 -2.451128 12.339424 -0.086451 0.536210 12.065873 -0.000001 -0.000000 -0.000000 -0.000001 0.000000 -0.000002 -0.191647 -8.154892 15.146609 -0.184786 0.069999 18.642467 -0.000010 -0.000001 -0.000006 -0.000000 -0.000001 -0.000003 -0.186608 -13.934091 12.696677 -0.393926 2.011581 20.373476 -0.000005 -0.000006 -0.000000 -0.000002 -0.000001 0.000002 -1.486840 -18.696695 11.666819 32.291980 -44.265192 5.880916 0.000001 -0.000001 0.000002 0.434883 2.338765 -5.433664 0.000000 0.000000 0.000000 25.163040 4.314397 4.108418 -0.030146 -108.862499 -0.028865 -92.730425 -15.108865 9.674250 -6.288969 -0.818489 10.825834 -0.648816 5.091593 4.893094 -0.000001 0.000004 -0.000007 0.000001 -0.000000 -0.000001 -1.611787 1.249725 -10.519367 0.225355 1.676466 -17.917181 0.000007 -0.000002 0.000005 -0.000001 0.000002 -0.000000 -0.768943 2.670833 -12.278913 -0.069426 -0.381284 -12.028608 -0.000000 -0.000002 0.000006 0.000001 -0.000000 0.000002 1.725078 7.633601 -15.374445 -0.286402 -0.695570 -18.570127 0.000007 0.000001 -0.000002 -0.000000 0.000005 0.000003 3.993347 12.960910 -13.650464 -0.644330 -3.455936 -20.138777 0.000001 -0.000004 -0.000001 -0.000000 0.000001 0.000000 -109.937762 -26.664866 5.408797 118.021093 -1.243676 -2.326952 27.135163 9.175331 -21.975338 -0.823331 -0.169383 0.961198 -0.000000 0.000000 0.000000 -96.990517 -20.524175 22.054860 107.888637 1.836834 2.245579 25.487971 -16.492327 24.022692 0.009793 -0.281657 0.206484 0.000001 -0.000001 0.000002 
10.356819 129.643616 -14.438587 -72.034897 44.469022 47.724270 1.536462 2.876883 3.799180 2.869777 6.036844 7.641386 0.000000 0.000000 0.000000 2.869768 6.036844 7.641389 -0.416423 10.763406 24.040007 0.000000 0.000000 0.000000 26.038237 42.657892 15.404177 -0.080365 109.439117 0.076112 -14.844984 1.197665 -59.381043 -6.357596 0.920769 -10.884788 -0.616341 -5.056470 -4.789410 -0.000015 -0.000005 0.000006 0.000000 -0.000002 -0.000001 0.106610 -0.939348 11.517535 0.159956 -1.233901 16.781869 -0.000000 0.000001 -0.000005 -0.000000 0.000000 0.000000 -0.015218 -2.461256 12.225777 -0.085541 0.530550 11.973767 0.000002 0.000001 -0.000004 0.000002 -0.000001 -0.000002 -0.195530 -8.129698 15.009255 -0.181411 0.059951 18.480641 -0.000008 -0.000001 -0.000006 0.000000 0.000001 -0.000005 -0.161724 -13.848877 12.602439 -0.387907 1.991180 20.180094 -0.000007 -0.000011 0.000002 -0.000002 -0.000002 0.000005 -2.256473 -18.947843 10.959623 32.409060 -43.786683 6.252324 0.000002 -0.000000 -0.000000 0.411615 2.438072 -5.356685 0.000000 0.000000 0.000000 25.505636 4.892721 3.453812 -0.026356 -108.913998 -0.025280 -92.329261 -15.279101 8.900263 -6.293533 -0.817416 10.836052 -0.653252 5.037574 4.845381 -0.000002 0.000004 -0.000007 0.000000 -0.000000 -0.000000 -1.680092 1.338106 -10.422305 0.226734 1.664458 -17.773320 0.000006 0.000002 0.000002 -0.000001 -0.000003 0.000002 -0.761015 2.726073 -12.176304 -0.068417 -0.376528 -11.937828 -0.000001 -0.000001 0.000007 -0.000001 -0.000000 0.000000 1.717989 7.608747 -15.242803 -0.280909 -0.679136 -18.397465 0.000008 0.000002 0.000001 -0.000001 0.000002 -0.000000 4.014108 12.864063 -13.568552 -0.632154 -3.422601 -19.945134 0.000001 -0.000002 -0.000005 -0.000001 0.000001 -0.000003 -109.447313 -27.604397 5.223167 118.044028 -1.274623 -2.329198 27.488187 8.890492 -21.503094 -1.158300 -0.330536 1.342972 0.000000 0.000000 -0.000000 -96.145670 -20.974369 22.441580 107.529266 1.805539 2.248240 25.832235 -17.213636 24.723225 0.029507 -0.375140 0.274333 0.000001 0.000001 0.000000 
